<svg width="885" height="128" viewBox="0 0 885 128" fill="none" xmlns="http://www.w3.org/2000/svg">
<path d="M64.5852 0C100.256 0 129.17 28.6558 129.17 64.0009C129.17 99.3468 100.254 128 64.5852 128C28.9184 128 0 99.3468 0 64.0009C0 28.6567 28.9157 0 64.5852 0ZM167.725 3.7487C185.56 3.7487 200.018 30.7221 200.018 64.0009H200.021C200.021 97.2717 185.562 124.253 167.728 124.253C149.894 124.253 135.435 97.2717 135.435 64.0009C135.435 30.7309 149.89 3.7487 167.726 3.7487H167.725ZM217.642 10.025C223.914 10.025 229 34.1909 229 64.0018C229 93.803 223.915 117.979 217.642 117.979C211.369 117.979 206.287 93.81 206.287 64.0018C206.287 34.1926 211.371 10.025 217.642 10.025Z" fill="black"/>
<path d="M564.288 113.713C564.288 115.966 564.288 116.478 565.805 117.86L574.306 126.257V126.615H536.615V110.487C532.821 121.116 522.787 128.146 511.621 127.998C492.244 127.998 478.179 112.638 478.179 84.3755C478.179 57.9052 493.356 40.2413 514.656 40.2413C524.098 39.6406 532.885 45.1445 536.564 53.9628V18.3807C536.702 17.5747 536.614 16.7462 536.31 15.9871C536.007 15.228 535.499 14.5678 534.843 14.0799L526.748 6.19517V5.83677L564.288 1.38239V113.713ZM536.615 108.593V55.4988C535.276 53.8088 533.566 52.4496 531.619 51.5263C529.671 50.603 527.537 50.1403 525.382 50.1741C516.225 50.1741 507.371 58.5708 507.371 83.5051C507.371 106.852 515.011 115.095 524.523 115.095C526.907 115.042 529.246 114.425 531.347 113.295C533.448 112.165 535.254 110.554 536.615 108.593ZM589.282 126.615V54.9356C589.401 54.1492 589.325 53.3454 589.06 52.5953C588.796 51.8452 588.351 51.1719 587.764 50.6349L579.415 41.9309V41.5725H617.108V114.276C617.108 116.529 617.108 117.041 618.626 118.423L626.924 126.308V126.667L589.282 126.615ZM587.916 15.3582C587.916 6.87613 594.711 0 603.093 0C611.474 0 618.271 6.87783 618.271 15.3599C618.271 23.842 611.476 30.7199 603.094 30.7199C594.713 30.7199 587.916 23.842 587.916 15.3599V15.3582ZM718.8 113.559C718.8 115.812 718.8 116.478 720.318 117.86L728.818 126.257V126.615H690.924V108.235C687.473 119.857 676.96 127.861 664.97 127.998C648.173 127.998 639.168 115.607 639.168 92.1579C639.168 80.8427 639.168 68.4524 639.521 54.526C639.658 53.7622 639.589 52.9756 639.323 52.2469C639.056 51.5181 638.6 50.8734 638.003 50.3789L629.656 41.9309V41.5725H667.043V88.3179C667.043 103.678 669.271 113.918 678.781 113.918C681.304 113.753 683.746 112.96 685.884 111.609C688.023 110.259 689.79 108.395 691.025 106.187V54.9868C691.144 54.2004 691.068 53.3966 690.803 52.6465C690.539 51.8964 690.093 51.2231 689.507 50.6861L681.108 41.9309V41.5725H718.8V113.559ZM847.106 126.615C847.106 123.851 847.612 88.6251 847.612 80.5355C847.612 65.1756 845.233 54.5772 834.558 54.5772C831.902 54.6645 829.303 55.3776 826.974 56.6586C824.644 57.9397 822.65 59.7526 821.152 61.95C822.222 66.7372 822.731 71.6353 822.669 76.5419C822.669 87.1915 822.315 100.759 822.163 114.327C822.026 115.091 822.094 115.878 822.361 116.607C822.627 117.335 823.083 117.98 823.68 118.475L832.181 126.359V126.718H794.135C794.135 124.158 794.64 88.7275 794.64 80.6379C794.64 65.022 792.263 54.6796 781.739 54.6796C779.178 54.7776 776.684 55.5242 774.49 56.8494C772.295 58.1746 770.473 60.0352 769.192 62.2572V114.481C769.192 116.734 769.192 117.246 770.71 118.628L779.008 126.513V126.871H741.366V55.1916C741.485 54.4052 741.409 53.6014 741.144 52.8513C740.88 52.1012 740.434 51.4279 739.848 50.8909L731.499 41.9309V41.5725H769.192V59.7996C772.688 47.7677 783.823 39.6815 796.209 40.1901C808.756 40.1901 817.255 47.2557 820.848 60.67C824.838 48.2984 836.322 39.9973 849.179 40.1901C865.976 40.1901 875.488 52.734 875.488 76.4395C875.488 87.7547 875.135 100.657 874.983 114.225C874.838 115.009 874.923 115.818 875.228 116.554C875.533 117.29 876.045 117.922 876.702 118.372L885 126.257V126.615H847.106ZM373.602 115.454L384.783 126.257V126.615H328.068V126.257L339.452 115.454C340.05 114.959 340.505 114.314 340.772 113.586C341.039 112.857 341.107 112.07 340.97 111.307V42.2381C340.97 39.3197 340.97 35.3773 341.475 31.9981L303.226 127.999H302.772L263.157 39.6798C262.296 37.4782 262.043 37.3246 261.486 35.8398V93.7468C261.012 97.6203 261.662 101.549 263.36 105.062L279.296 126.259V126.617H237V126.259L252.937 105.011C254.621 101.511 255.27 97.6031 254.808 93.7468V29.7471C255.069 26.6009 254.129 23.4726 252.179 20.9919L240.897 6.19517V5.83677H281.371L315.268 80.6396L345.119 5.83677H384.732V6.19517L373.602 18.7391C372.946 19.227 372.438 19.8871 372.135 20.6463C371.831 21.4054 371.743 22.2339 371.881 23.0399V111.308C371.736 112.092 371.822 112.901 372.127 113.638C372.433 114.374 372.946 115.005 373.604 115.455L373.602 115.454ZM417.973 80.8427V81.2011C417.973 103.115 429.154 111.921 442.257 111.921C453.198 112.298 463.326 106.089 468.06 96.1002H468.414C463.861 117.758 450.605 127.998 430.772 127.998C409.371 127.998 389.185 114.942 389.185 84.6827C389.185 52.8876 409.423 40.1901 431.784 40.1901C449.796 40.1901 468.97 48.7917 468.97 76.4395V80.8427H417.973ZM417.973 76.4395H442.916V71.9852C442.916 49.4573 438.311 43.4669 431.38 43.4669C422.981 43.4669 417.872 52.4268 417.872 76.4395H417.973Z" fill="#1C1B1A"/>
</svg>
